<svg width="23" height="22" viewBox="0 0 23 22" fill="none" xmlns="http://www.w3.org/2000/svg">
<path fill-rule="evenodd" clip-rule="evenodd" d="M3.50634 17.0861L3.67744 16.4475L3.32158 15.8904C2.39414 14.4384 1.85645 12.7142 1.85645 10.8599C1.85645 5.69057 6.04701 1.5 11.2163 1.5C16.3857 1.5 20.5762 5.69057 20.5762 10.8599C20.5762 16.0292 16.3857 20.2198 11.2163 20.2198C9.66065 20.2198 8.19773 19.8414 6.91035 19.173L6.39347 18.9047L5.83093 19.0554L2.75803 19.8788L3.50634 17.0861ZM0.636711 22.0001L2.30974 21.5518L6.21916 20.5043C7.71502 21.2809 9.41443 21.7198 11.2163 21.7198C17.2141 21.7198 22.0762 16.8576 22.0762 10.8599C22.0762 4.86214 17.2141 0 11.2163 0C5.21858 0 0.356445 4.86214 0.356445 10.8599C0.356445 13.0088 0.980575 15.0119 2.05745 16.6978L1.085 20.3271L0.636711 22.0001ZM6.52498 5.86553C6.77327 5.57318 7.06603 5.50009 7.2471 5.50009H7.2592C7.43512 5.50009 7.61012 5.50008 7.76382 5.50694C7.95681 5.51513 8.17095 5.5264 8.3737 6.0117C8.51314 6.34634 8.74845 6.97079 8.93484 7.46542C9.07022 7.82466 9.17978 8.11542 9.20807 8.17692C9.27529 8.3231 9.32135 8.49441 9.23136 8.68853C9.21913 8.71492 9.2077 8.73996 9.19674 8.76397C9.12707 8.91663 9.07647 9.0275 8.9603 9.17502C8.91365 9.23378 8.86559 9.29718 8.81766 9.36041C8.72632 9.48089 8.63547 9.60074 8.55582 9.68664C8.42029 9.83164 8.2779 9.99158 8.43512 10.2828C8.59342 10.5751 9.13627 11.5288 9.94078 12.3018C10.8041 13.1314 11.5539 13.4838 11.936 13.6634C12.0117 13.699 12.0729 13.7278 12.1177 13.7521C12.3888 13.8983 12.546 13.8721 12.7043 13.6768C12.8626 13.4826 13.3799 12.8271 13.5599 12.5348C13.7399 12.2424 13.9215 12.2915 14.1698 12.3886C14.4181 12.4857 15.7485 13.1903 16.0185 13.3364C16.072 13.3653 16.1221 13.3913 16.1684 13.4154C16.3565 13.5132 16.4834 13.5792 16.5373 13.6768C16.6045 13.7972 16.604 14.3837 16.3785 15.0654C16.153 15.7472 15.0475 16.4039 14.5509 16.4518C14.5037 16.4565 14.4567 16.4624 14.4084 16.4686C13.9495 16.5269 13.3726 16.6002 11.3046 15.7209C8.75884 14.6387 7.08078 11.9543 6.73822 11.4063C6.71063 11.3621 6.69171 11.3319 6.68169 11.3174L6.67905 11.3136C6.53409 11.1048 5.57626 9.72503 5.57626 8.29797C5.57626 6.95325 6.19045 6.24934 6.47243 5.92617C6.49158 5.90423 6.50919 5.88404 6.52498 5.86553Z" fill="#334552"/>
</svg>
